<?xml version="1.0" encoding="utf-8"?>
<!-- Generator: Adobe Illustrator 25.2.1, SVG Export Plug-In . SVG Version: 6.00 Build 0)  -->
<svg version="1.1" id="Camada_1" xmlns="http://www.w3.org/2000/svg" xmlns:xlink="http://www.w3.org/1999/xlink" x="0px" y="0px"
	 viewBox="0 0 1190.55 841.89" style="enable-background:new 0 0 1190.55 841.89;" xml:space="preserve">
<style type="text/css">
	.st0{fill:#44387F;}
</style>
<path class="st0" d="M926.96,358.66c-4.59-26.14-12.31-50.78-23.07-75.39l39.99-43.1c13.89-13.85,13.89-36.9,1.59-50.8l-56.93-69.22
	c-12.35-15.4-33.86-18.48-50.78-7.68l-49.26,32.29c-23.05-16.94-47.71-29.23-72.35-38.49l-1.48-61.54
	c-1.59-18.48-16.98-35.4-35.42-36.93l-90.81-7.68C570-1.41,551.53,10.89,548.45,30.9l-12.31,56.93
	c-29.25,4.61-56.93,12.29-84.64,24.62l-41.56-40.03c-13.83-12.29-35.38-13.83-50.78-1.54l-69.22,58.48
	c-15.38,12.29-18.44,33.82-7.7,50.78L313,227.82c-16.94,23.07-30.75,49.21-39.99,75.39l-53.87,1.54
	c-20.03,1.52-35.42,15.42-38.49,35.4l-7.68,89.23c-1.54,20.03,10.74,36.95,30.77,41.54l52.32,10.76
	c4.61,29.27,13.85,55.41,24.62,81.59l-35.4,38.45c-13.83,13.83-15.38,35.42-3.07,50.78l58.48,69.3
	c12.33,15.35,33.88,18.42,50.78,7.63l43.1-27.68c24.6,16.96,50.78,30.75,78.44,41.56l1.54,52.32c1.54,19.99,15.4,35.34,35.4,38.43
	l89.25,7.72c20.01,1.48,36.9-12.35,41.54-30.79l10.81-50.78c30.75-6.13,60.02-15.38,87.68-29.21l38.51,36.9
	c15.35,13.85,36.88,13.85,52.26,1.54l69.22-56.93c13.89-12.31,16.98-33.88,6.22-50.71l-29.27-47.73
	c15.42-23.09,27.73-49.3,38.47-75.42l55.39-1.52c19.96-1.54,35.42-15.38,36.88-35.42l9.28-89.23c1.52-19.96-12.33-36.95-30.81-41.56
	L926.96,358.66z M579.22,572.56L579.22,572.56c-83.09-7.74-143.11-80.05-135.39-161.58c6.15-83.11,80.01-143.11,161.53-135.39
	c83.09,6.13,143.11,80.01,135.41,161.58C733.09,520.22,660.79,580.22,579.22,572.56L579.22,572.56z"/>
</svg>
