<?xml version="1.0" encoding="UTF-8" standalone="no"?> <svg viewBox="0 0 60 60" fill="none" xmlns="http://www.w3.org/2000/svg">
<path d="M22.1953 26.1953H4C2.93948 26.1942 1.92272 25.7724 1.17282 25.0225C0.422921 24.2726 0.0011303 23.2558 0 22.1953V4C0.0011303 2.93948 0.422921 1.92272 1.17282 1.17282C1.92272 0.422921 2.93948 0.0011303 4 0L22.1953 0C23.2558 0.00112765 24.2726 0.422917 25.0225 1.17282C25.7724 1.92272 26.1942 2.93948 26.1953 4V22.1953C26.1942 23.2558 25.7724 24.2726 25.0225 25.0225C24.2726 25.7724 23.2558 26.1942 22.1953 26.1953V26.1953ZM4 2C3.46975 2.00061 2.9614 2.21151 2.58646 2.58646C2.21151 2.9614 2.00061 3.46975 2 4V22.1953C2.00061 22.7256 2.21151 23.2339 2.58646 23.6089C2.9614 23.9838 3.46975 24.1947 4 24.1953H22.1953C22.7256 24.1947 23.2339 23.9838 23.6089 23.6089C23.9838 23.2339 24.1947 22.7256 24.1953 22.1953V4C24.1947 3.46975 23.9838 2.9614 23.6089 2.58646C23.2339 2.21151 22.7256 2.00061 22.1953 2H4ZM56 26.1953H37.8047C36.7442 26.1942 35.7274 25.7724 34.9775 25.0225C34.2276 24.2726 33.8058 23.2558 33.8047 22.1953V4C33.8058 2.93948 34.2276 1.92272 34.9775 1.17282C35.7274 0.422917 36.7442 0.00112765 37.8047 0L56 0C57.0605 0.0011303 58.0773 0.422921 58.8272 1.17282C59.5771 1.92272 59.9989 2.93948 60 4V22.1953C59.9989 23.2558 59.5771 24.2726 58.8272 25.0225C58.0773 25.7724 57.0605 26.1942 56 26.1953V26.1953ZM37.8047 2C37.2744 2.00061 36.7661 2.21151 36.3911 2.58646C36.0162 2.9614 35.8053 3.46975 35.8047 4V22.1953C35.8053 22.7256 36.0162 23.2339 36.3911 23.6089C36.7661 23.9838 37.2744 24.1947 37.8047 24.1953H56C56.5302 24.1947 57.0386 23.9838 57.4135 23.6089C57.7885 23.2339 57.9994 22.7256 58 22.1953V4C57.9994 3.46975 57.7885 2.9614 57.4135 2.58646C57.0386 2.21151 56.5302 2.00061 56 2H37.8047ZM22.1953 60H4C2.93946 59.9989 1.92266 59.5772 1.17274 58.8273C0.422826 58.0773 0.00105895 57.0605 0 56V37.8047C0.00105895 36.7442 0.422826 35.7273 1.17274 34.9774C1.92266 34.2275 2.93946 33.8058 4 33.8047H22.1953C23.2559 33.8058 24.2727 34.2275 25.0226 34.9774C25.7725 35.7273 26.1943 36.7442 26.1953 37.8047V56C26.1943 57.0605 25.7725 58.0773 25.0226 58.8273C24.2727 59.5772 23.2559 59.9989 22.1953 60ZM4 35.8047C3.46978 35.8054 2.96147 36.0163 2.58655 36.3912C2.21162 36.7662 2.00069 37.2745 2 37.8047V56C2.00069 56.5302 2.21162 57.0385 2.58655 57.4135C2.96147 57.7884 3.46978 57.9993 4 58H22.1953C22.7255 57.9993 23.2338 57.7884 23.6088 57.4135C23.9837 57.0385 24.1946 56.5302 24.1953 56V37.8047C24.1946 37.2745 23.9837 36.7662 23.6088 36.3912C23.2338 36.0163 22.7255 35.8054 22.1953 35.8047H4ZM46.9023 60C44.3119 60 41.7796 59.2318 39.6257 57.7926C37.4718 56.3535 35.793 54.3079 34.8017 51.9146C33.8104 49.5213 33.551 46.8878 34.0563 44.3471C34.5617 41.8064 35.8092 39.4726 37.6409 37.6409C39.4726 35.8092 41.8064 34.5617 44.3471 34.0563C46.8878 33.551 49.5213 33.8104 51.9146 34.8017C54.3079 35.793 56.3535 37.4718 57.7926 39.6257C59.2318 41.7796 60 44.3119 60 46.9023C59.9959 50.3748 58.6147 53.7039 56.1593 56.1593C53.7039 58.6147 50.3748 59.9959 46.9023 60V60ZM46.9023 35.8047C44.7074 35.8047 42.5618 36.4556 40.7368 37.675C38.9118 38.8944 37.4894 40.6276 36.6494 42.6555C35.8095 44.6833 35.5897 46.9147 36.0179 49.0674C36.4461 51.2201 37.5031 53.1975 39.0551 54.7496C40.6072 56.3016 42.5846 57.3586 44.7373 57.7868C46.89 58.215 49.1214 57.9952 51.1492 57.1552C53.1771 56.3153 54.9103 54.8929 56.1297 53.0679C57.3491 51.2429 58 49.0973 58 46.9023C57.9966 43.9601 56.8263 41.1393 54.7458 39.0588C52.6654 36.9784 49.8446 35.8081 46.9023 35.8047V35.8047Z" fill="url(#paint0_linear)"/>
<defs>
<linearGradient id="paint0_linear" x1="0" y1="30" x2="60" y2="30" gradientUnits="userSpaceOnUse">
<stop stop-color="#17A6D7"/>
<stop offset="1" stop-color="#9D31FE"/>
</linearGradient>
</defs>
</svg>
