<?xml version="1.0" encoding="utf-8"?>
<!-- Generator: Adobe Illustrator 25.2.1, SVG Export Plug-In . SVG Version: 6.00 Build 0)  -->
<svg version="1.1" xmlns="http://www.w3.org/2000/svg" xmlns:xlink="http://www.w3.org/1999/xlink" x="0px" y="0px"
	 viewBox="0 0 3710 3710" style="enable-background:new 0 0 3710 3710;" xml:space="preserve">
<style type="text/css">
	.st0{fill:url(#SVGID_1_);}
	.st1{fill:url(#SVGID_2_);}
	.st2{fill:url(#SVGID_3_);}
	.st3{fill:url(#SVGID_4_);}
	.st4{fill:#FFFFFF;}
	.st5{fill:url(#SVGID_5_);}
	.st6{fill:url(#SVGID_6_);}
	.st7{fill:url(#SVGID_7_);}
	.st8{fill:url(#SVGID_8_);}
	.st9{fill:url(#SVGID_9_);}
	.st10{fill:url(#SVGID_10_);}
	.st11{fill:url(#SVGID_11_);}
	.st12{fill:url(#SVGID_12_);}
	.st13{fill:url(#SVGID_13_);}
	.st14{opacity:0.5;fill:#FFFFFF;}
	.st15{fill:url(#SVGID_14_);}
	.st16{opacity:0.5;}
</style>
<g id="Background">
</g>
<g id="Illustration">
	<g>
		<g>
			<linearGradient id="SVGID_1_" gradientUnits="userSpaceOnUse" x1="1706.8981" y1="1883.3329" x2="1410.848" y2="1915.6292">
				<stop  offset="0" style="stop-color:#444B8C"/>
				<stop  offset="0.9964" style="stop-color:#26264F"/>
			</linearGradient>
			<path class="st0" d="M2060.4,1137.45l180.36,1499.11c2.7,22.48-12.79,42.63-34.49,44.78l-751.22,82.47
				c-46.02,2.86-71.22-20.65-74.06-44.55l-189.36-1593.8c-2.82-23.77,19.75-45.29,65.97-45.29l758.05,15.97
				C2037.6,1096.5,2057.71,1115.09,2060.4,1137.45z"/>
			<linearGradient id="SVGID_2_" gradientUnits="userSpaceOnUse" x1="1967.7461" y1="1137.0797" x2="1235.7001" y2="3629.272">
				<stop  offset="0" style="stop-color:#444B8C"/>
				<stop  offset="0.9964" style="stop-color:#26264F"/>
			</linearGradient>
			<path class="st1" d="M2094.21,1134.87l181.35,1506.61c2.72,22.59-12.83,42.84-34.61,45.01l-778.8,77.54
				c-24.42,2.43-46.79-15.23-49.65-39.26l-190.42-1602.04c-2.84-23.89,15.09-43.09,39.78-42.68l787.43,13.29
				C2071.32,1093.71,2091.5,1112.4,2094.21,1134.87z"/>
			<linearGradient id="SVGID_3_" gradientUnits="userSpaceOnUse" x1="1260.2633" y1="1949.8833" x2="2247.8037" y2="1949.8833">
				<stop  offset="3.597120e-03" style="stop-color:#E38DDD"/>
				<stop  offset="1" style="stop-color:#9571F6"/>
			</linearGradient>
			<path class="st2" d="M2079.43,1217.97l168.09,1396.92c2.54,21.1-12.02,39.99-32.41,41.97l-732.44,71.2
				c-22.7,2.21-43.5-14.28-46.16-36.64l-175.98-1479.91c-2.65-22.25,14-40.25,36.93-40l739.95,7.88
				C2058.03,1179.61,2076.9,1196.97,2079.43,1217.97z"/>
			<linearGradient id="SVGID_4_" gradientUnits="userSpaceOnUse" x1="1693.4313" y1="1075.6951" x2="833.0783" y2="3405.8171">
				<stop  offset="0" style="stop-color:#FFC444"/>
				<stop  offset="0.9964" style="stop-color:#F36F56"/>
			</linearGradient>
			<path class="st3" d="M1686.66,1133.83c0.96,8.02-4.8,14.44-12.86,14.34c-8.08-0.1-15.41-6.7-16.37-14.74
				c-0.96-8.04,4.82-14.46,12.89-14.34C1678.39,1119.21,1685.7,1125.81,1686.66,1133.83z"/>
			<g>
				<path class="st4" d="M1952.8,2155.67c-149.95-277.23-373.94-360.21-441.38-645.93c-36.45-154.44-11.62-302.26,30.21-424.97
					l-279.77-4.72c-24.68-0.42-42.62,18.79-39.78,42.68l190.42,1602.04c2.86,24.02,25.23,41.69,49.65,39.26l612.21-60.95
					C2078.89,2454.66,2019.64,2279.25,1952.8,2155.67z"/>
			</g>
		</g>
		<g>
			<linearGradient id="SVGID_5_" gradientUnits="userSpaceOnUse" x1="1846.7494" y1="1132.5292" x2="1332.6816" y2="2422.738">
				<stop  offset="0" style="stop-color:#311944"/>
				<stop  offset="1" style="stop-color:#6B3976"/>
			</linearGradient>
			<path class="st5" d="M2115.79,1236.48l-729.12,9.36c-25.54,0.33-43.81,21.39-40.75,47.05l14.43,121.02
				c3.06,25.66,26.26,45.99,51.78,45.42l728.29-16.28c23.83-0.53,40.72-21.01,37.77-45.73l-13.9-116.63
				C2161.34,1255.97,2139.65,1236.17,2115.79,1236.48z"/>
			<linearGradient id="SVGID_6_" gradientUnits="userSpaceOnUse" x1="2027.5649" y1="1143.5737" x2="1513.4988" y2="2433.7786">
				<stop  offset="0" style="stop-color:#311944"/>
				<stop  offset="1" style="stop-color:#6B3976"/>
			</linearGradient>
			<path class="st6" d="M2210.92,1456.98l-728.09,17.93c-25.51,0.63-43.75,21.94-40.69,47.59l14.43,121.02
				c3.06,25.66,26.23,45.75,51.71,44.88l727.27-24.85c23.8-0.81,40.66-21.51,37.71-46.24l-13.9-116.63
				C2256.41,1475.96,2234.75,1456.4,2210.92,1456.98z"/>
			<linearGradient id="SVGID_7_" gradientUnits="userSpaceOnUse" x1="2307.5205" y1="1316.1162" x2="1793.4525" y2="2606.3252">
				<stop  offset="0" style="stop-color:#311944"/>
				<stop  offset="1" style="stop-color:#6B3976"/>
			</linearGradient>
			<path class="st7" d="M2222.26,2129.5l-725.55,39.29c-25.42,1.38-43.58,23.29-40.52,48.95l44.94,376.98
				c3.06,25.66,26.13,44.9,51.49,43l723.73-54.5c23.68-1.78,40.45-23.27,37.5-47.99l-43.31-363.28
				C2267.6,2147.22,2246,2128.22,2222.26,2129.5z"/>
			<linearGradient id="SVGID_8_" gradientUnits="userSpaceOnUse" x1="1926.0663" y1="1164.1299" x2="1411.9996" y2="2454.3354">
				<stop  offset="0" style="stop-color:#311944"/>
				<stop  offset="1" style="stop-color:#6B3976"/>
			</linearGradient>
			<path class="st8" d="M1489.95,2112.1l295.92-15.27c24.7-1.27,42.24-22.75,39.24-47.96l-28.07-235.41
				c-3.01-25.21-25.46-44.92-50.2-44.01l-296.45,10.88c-25.47,0.94-43.68,22.49-40.62,48.15l28.56,239.54
				C1441.4,2093.68,1464.53,2113.42,1489.95,2112.1z"/>
			<linearGradient id="SVGID_9_" gradientUnits="userSpaceOnUse" x1="2295.7388" y1="1311.4221" x2="1781.6714" y2="2601.6296">
				<stop  offset="0" style="stop-color:#311944"/>
				<stop  offset="1" style="stop-color:#6B3976"/>
			</linearGradient>
			<path class="st9" d="M2177.45,1753.65l-284.95,10.46c-24.47,0.9-41.92,22.02-38.93,47.17l27.99,234.8
				c3,25.15,25.28,44.51,49.71,43.25l284.44-14.68c23.75-1.23,40.57-22.26,37.62-46.98l-27.52-230.83
				C2222.88,1772.11,2201.24,1752.77,2177.45,1753.65z"/>
			<linearGradient id="SVGID_10_" gradientUnits="userSpaceOnUse" x1="1292.6334" y1="3212.7356" x2="1534.5463" y2="2265.2419">
				<stop  offset="3.597000e-03" style="stop-color:#F36F56"/>
				<stop  offset="1" style="stop-color:#FFC444"/>
			</linearGradient>
			<path class="st10" d="M2124.71,1230.61l-729.12,9.36c-25.54,0.33-43.81,21.39-40.75,47.05l14.43,121.02
				c3.06,25.66,26.26,45.99,51.78,45.42l728.29-16.28c23.83-0.53,40.72-21.01,37.77-45.73l-13.9-116.63
				C2170.26,1250.1,2148.57,1230.3,2124.71,1230.61z"/>
			<linearGradient id="SVGID_11_" gradientUnits="userSpaceOnUse" x1="2036.4838" y1="1137.6997" x2="1522.4175" y2="2427.9048">
				<stop  offset="0" style="stop-color:#FF9085"/>
				<stop  offset="1" style="stop-color:#FB6FBB"/>
			</linearGradient>
			<path class="st11" d="M2219.84,1451.11l-728.09,17.93c-25.51,0.63-43.75,21.94-40.69,47.59l14.43,121.02
				c3.06,25.66,26.23,45.75,51.71,44.88l727.27-24.85c23.8-0.81,40.66-21.51,37.71-46.24l-13.9-116.63
				C2265.33,1470.09,2243.67,1450.52,2219.84,1451.11z"/>
			<linearGradient id="SVGID_12_" gradientUnits="userSpaceOnUse" x1="1655.292" y1="3305.3315" x2="1897.2058" y2="2357.8345">
				<stop  offset="3.597000e-03" style="stop-color:#F36F56"/>
				<stop  offset="1" style="stop-color:#FFC444"/>
			</linearGradient>
			<path class="st12" d="M2231.18,2123.63l-725.55,39.29c-25.42,1.38-43.58,23.29-40.52,48.95l44.94,376.98
				c3.06,25.66,26.13,44.9,51.49,43l723.73-54.5c23.68-1.78,40.45-23.27,37.5-47.99l-43.31-363.28
				C2276.52,2141.34,2254.92,2122.34,2231.18,2123.63z"/>
			<linearGradient id="SVGID_13_" gradientUnits="userSpaceOnUse" x1="1299.1544" y1="3214.4021" x2="1541.0674" y2="2266.9082">
				<stop  offset="3.597000e-03" style="stop-color:#F36F56"/>
				<stop  offset="1" style="stop-color:#FFC444"/>
			</linearGradient>
			<path class="st13" d="M1498.87,2106.23l295.92-15.27c24.7-1.27,42.24-22.75,39.24-47.96l-28.07-235.41
				c-3.01-25.21-25.46-44.92-50.2-44.01l-296.45,10.88c-25.47,0.94-43.68,22.49-40.62,48.15l28.56,239.54
				C1450.32,2087.81,1473.45,2107.54,1498.87,2106.23z"/>
			<path class="st14" d="M1498.87,2106.23l295.92-15.27c24.7-1.27,42.24-22.75,39.24-47.96l-28.07-235.41
				c-3.01-25.21-25.46-44.92-50.2-44.01l-296.45,10.88c-25.47,0.94-43.68,22.49-40.62,48.15l28.56,239.54
				C1450.32,2087.81,1473.45,2107.54,1498.87,2106.23z"/>
			<linearGradient id="SVGID_14_" gradientUnits="userSpaceOnUse" x1="1703.8795" y1="3317.7378" x2="1945.7925" y2="2370.2437">
				<stop  offset="3.597000e-03" style="stop-color:#F36F56"/>
				<stop  offset="1" style="stop-color:#FFC444"/>
			</linearGradient>
			<path class="st15" d="M2186.37,1747.77l-284.95,10.46c-24.47,0.9-41.92,22.02-38.93,47.17l27.99,234.8
				c3,25.15,25.28,44.51,49.71,43.25l284.44-14.68c23.75-1.23,40.57-22.26,37.62-46.98l-27.52-230.83
				C2231.79,1766.24,2210.16,1746.9,2186.37,1747.77z"/>
			<g class="st16">
				<path class="st4" d="M1491.75,1469.04c-25.51,0.63-43.75,21.94-40.69,47.59l14.43,121.02c3.06,25.66,26.23,45.75,51.71,44.88
					l511.09-17.47c-54.94-76.24-126.26-135.17-170.06-205.05L1491.75,1469.04z"/>
			</g>
			<g class="st16">
				<path class="st4" d="M1925.55,2140.18l-419.92,22.74c-25.42,1.38-43.58,23.29-40.53,48.95l44.95,376.98
					c3.06,25.66,26.13,44.9,51.49,43l325.47-24.51c-23.75-59.55-39.02-124.6-39.86-194.36
					C1845.74,2296.32,1885.2,2215.01,1925.55,2140.18z"/>
			</g>
			<g class="st16">
				<path class="st4" d="M2005.06,1845.14c-5.24-32.85-14.49-62.49-26.5-89.74l-77.14,2.83c-24.47,0.9-41.92,22.02-38.93,47.17
					l27.99,234.8c3,25.15,25.28,44.51,49.71,43.25l16.29-0.84C1992.78,2012.7,2020.49,1941.85,2005.06,1845.14z"/>
			</g>
			<g class="st16">
				<path class="st4" d="M1722.83,1321c2.38-30.78,10.2-59.33,21.32-85.51l-348.56,4.47c-25.54,0.33-43.81,21.39-40.75,47.05
					l14.43,121.02c3.06,25.66,26.26,45.99,51.78,45.42l327.24-7.32C1729.55,1409.29,1719.14,1368.81,1722.83,1321z"/>
			</g>
		</g>
	</g>
</g>
</svg>
